<?xml version="1.0" encoding="UTF-8" standalone="no"?>
<!DOCTYPE svg PUBLIC "-//W3C//DTD SVG 1.1//EN" "http://www.w3.org/Graphics/SVG/1.1/DTD/svg11.dtd">
<svg width="100%" height="100%" viewBox="0 0 32 56" version="1.1" xmlns="http://www.w3.org/2000/svg" xmlns:xlink="http://www.w3.org/1999/xlink" xml:space="preserve" xmlns:serif="http://www.serif.com/" style="fill-rule:evenodd;clip-rule:evenodd;stroke-linecap:round;stroke-linejoin:round;stroke-miterlimit:1.5;">
    <g transform="matrix(1,0,0,1,-1058.83,-1176.94)">
        <g transform="matrix(0.71582,0,0,0.926355,295.634,-26.8643)">
            <path d="M1105,1304C1086.79,1304 1072,1315.43 1072,1329.5C1072,1343.57 1086.79,1355 1105,1355C1086.79,1355 1072,1343.57 1072,1329.5C1072,1315.43 1086.79,1304 1105,1304C1086.79,1304 1072,1315.43 1072,1329.5C1072,1343.57 1086.79,1355 1105,1355C1086.79,1355 1072,1343.57 1072,1329.5C1072,1315.43 1086.79,1304 1105,1304" style="fill:none;stroke:rgb(35,31,32);stroke-width:10.07px;"/>
        </g>
    </g>
</svg>
